Coordinates
version=1
nRows=5
nColumns=63
inDegrees=yes

Units are S.I. units (second, meters, Newtons, ...)
If the header above contains a line with 'inDegrees', this indicates whether rotational values are in degrees (yes) or radians (no).

endheader
time	pelvis_tilt	pelvis_list	pelvis_rotation	pelvis_tx	pelvis_ty	pelvis_tz	hip_flexion_r	hip_adduction_r	hip_rotation_r	knee_angle_r	knee_angle_r_beta	ankle_angle_r	subtalar_angle_r	mtp_angle_r	hip_flexion_l	hip_adduction_l	hip_rotation_l	knee_angle_l	knee_angle_l_beta	ankle_angle_l	subtalar_angle_l	mtp_angle_l	L5_S1_Flex_Ext	L5_S1_Lat_Bending	L5_S1_axial_rotation	L4_L5_Flex_Ext	L4_L5_Lat_Bending	L4_L5_axial_rotation	L3_L4_Flex_Ext	L3_L4_Lat_Bending	L3_L4_axial_rotation	L2_L3_Flex_Ext	L2_L3_Lat_Bending	L2_L3_axial_rotation	L1_L2_Flex_Ext	L1_L2_Lat_Bending	L1_L2_axial_rotation	L1_T12_Flex_Ext	L1_T12_Lat_Bending	L1_T12_axial_rotation	Abs_r3	Abs_r2	Abs_r1	Abs_t1	Abs_t2	neck_flexion	neck_bending	neck_rotation	arm_flex_r	arm_add_r	arm_rot_r	elbow_flex_r	pro_sup_r	wrist_flex_r	wrist_dev_r	arm_flex_l	arm_add_l	arm_rot_l	elbow_flex_l	pro_sup_l	wrist_flex_l	wrist_dev_l
      4.51724138	      1.75244304	     -3.01201990	     75.98732335	      0.21840241	      0.89037113	      0.55590846	     11.40850652	      7.50751929	     13.53478665	      8.59416326	      0.14999645	     32.96026382	     -9.55980742	      0.00000000	      6.30101301	     -9.21939564	      2.20096294	      3.33336072	      0.05817812	     34.09569147	     15.93874482	      0.00000000	      0.05928453	      1.09083000	      1.00612661	      0.11009729	      1.45080390	      1.06900952	      0.09739855	      2.65224406	      1.06900952	      0.06775628	      2.65224406	      0.88036078	      0.05505161	      2.22442054	      0.81747787	      0.03387518	      1.68969567	      0.75459496	      0.42346344	     12.33968712	      5.59577436	      0.00000000	      0.00000000	     24.96238890	      1.86951331	    -14.66713980	    117.39679495	    -42.02258121	     43.39493771	     89.80618465	     63.04487865	    -15.15310025	    -10.44919636	     31.78720407	    -30.49928505	    -36.52683687	     66.96410362	     84.22099471	     -6.71224327	      6.58211297
      4.53448276	      1.40637418	     -3.27010112	     74.97451073	      0.22030900	      0.88759404	      0.55690089	     12.45721691	      7.75435378	     16.09303776	     10.26070604	      0.17908310	     33.44696174	    -11.53840835	      0.00000000	      6.96246109	     -9.23677049	      1.31037121	      4.49213961	      0.07840263	     34.99006111	     16.65846147	      0.00000000	      0.08148586	      1.03206584	      1.12690827	      0.15132739	      1.37264757	      1.19734004	      0.13387312	      2.50936488	      1.19734004	      0.09313019	      2.50936488	      0.98604474	      0.07566777	      2.10458866	      0.91561297	      0.04656102	      1.59866999	      0.84518120	      0.58204534	     11.67493520	      6.26752573	      0.00000000	      0.00000000	     25.19022236	      2.25190122	    -15.78584468	    111.34437797	    -41.77149436	     36.65484754	     89.61558265	     61.87058955	    -14.40455717	     -9.05506578	     30.94348867	    -31.48806517	    -35.55298120	     64.69156484	     85.63396729	    -12.73077698	      4.55896215
      4.55172414	      1.18639536	     -3.46256132	     74.10311878	      0.22165127	      0.88488751	      0.55787290	     13.53741388	      8.11867945	     17.98459582	     12.09752736	      0.21114168	     34.20258806	    -12.65443380	      0.00000000	      7.82270491	     -9.33352410	      0.66998370	      5.99583883	      0.10464713	     36.35778185	     17.24678274	      0.00000000	      0.09577496	      0.99204652	      1.10365469	      0.17786367	      1.31942187	      1.17263311	      0.15734868	      2.41206190	      1.17263311	      0.10946120	      2.41206190	      0.96569785	      0.08893662	      2.02298125	      0.89671943	      0.05472581	      1.53668005	      0.82774102	      0.68411093	     11.22222859	      6.13819628	      0.00000000	      0.00000000	     24.69295933	      2.60789133	    -17.00298445	    104.97641526	    -40.11250750	     29.95462057	     90.19042367	     61.65166854	    -14.18422349	     -7.56861237	     29.83612329	    -32.64835641	    -35.44253365	     61.94942217	     85.15473470	    -16.91405298	      0.72294197
      4.56896552	      1.01396025	     -3.68711279	     73.46793592	      0.22222462	      0.88219981	      0.55866343	     14.77668775	      8.44990114	     18.89976362	     14.06121031	      0.24541442	     35.36353538	    -12.54476647	      0.00000000	      9.07407157	     -9.42207912	      0.38588021	      7.89320086	      0.13776234	     38.04987755	     17.60379980	      0.00000000	      0.11274002	      0.96591489	      0.87439620	      0.20936949	      1.28466680	      0.92904596	      0.18522058	      2.34852545	      0.92904596	      0.12885057	      2.34852545	      0.76509667	      0.10469038	      1.96969363	      0.71044691	      0.06441965	      1.49620216	      0.65579715	      0.80529068	     10.92662237	      4.86312932	      0.00000000	      0.00000000	     23.44603337	      2.85354653	    -18.13183413	     98.48201797	    -37.36979252	     24.79432901	     92.11458369	     62.09130382	    -15.21012399	     -7.78544899	     27.85512188	    -33.68474052	    -37.66405519	     59.85273985	     83.52961745	    -17.40266796	     -2.78903982
      4.58620690	      0.86854302	     -3.81676316	     72.78693100	      0.22305851	      0.87944588	      0.55960856	     16.04854306	      8.82329062	     19.32642328	     16.16425956	      0.28211955	     36.72643846	    -11.79974637	      0.00000000	     10.47829301	     -9.56142497	     -0.20124863	     10.14194482	      0.17701033	     40.02941180	     17.99476374	      0.00000000	      0.11058233	      0.94730807	      0.57614504	      0.20536245	      1.25991973	      0.61215410	      0.18167572	      2.30328484	      0.61215410	      0.12638455	      2.30328484	      0.50412691	      0.10268676	      1.93175062	      0.46811784	      0.06318675	      1.46738020	      0.43210878	      0.78987855	     10.71613836	      3.20434585	      0.00000000	      0.00000000	     21.74763667	      2.74632441	    -19.03969101	     91.59131757	    -33.43179955	     19.55677457	     94.96990098	     69.29081398	    -13.44799139	     -6.76704346	     25.28016140	    -35.49607163	    -38.21452242	     56.93521560	     70.55114577	    -14.95250507	    -11.33092563
